<?xml version="1.0" encoding="UTF-8" standalone="no"?>
<svg width="375px" height="375px" viewBox="0 0 375 375" version="1.1" xmlns="http://www.w3.org/2000/svg" xmlns:xlink="http://www.w3.org/1999/xlink">
    <!-- Generator: Sketch 3.7.2 (28276) - http://www.bohemiancoding.com/sketch -->
    <title>iPhone 6</title>
    <desc>Created with Sketch.</desc>
    <defs></defs>
    <g id="Page-1" stroke="none" stroke-width="1" fill="none" fill-rule="evenodd">
        <g id="iPhone-6">
            <circle id="Oval" fill="#FFE323" cx="187.43162" cy="187.43162" r="187.43162"></circle>
            <path d="M350.882553,187.440311 C350.882553,277.705197 277.708095,350.881588 187.442243,350.881588 C97.173493,350.881588 24,277.705197 24,187.440311 C24,97.1754247 97.173493,24 187.442243,24 C277.708095,23.9990342 350.882553,97.1744588 350.882553,187.440311 L350.882553,187.440311 Z" id="Shape" fill="#FFD100"></path>
            <g id="Group" transform="translate(65.000000, 89.000000)" fill="#FFFF23">
                <path d="M245.090926,24.9938446 C245.090926,35.9512279 236.210085,44.8330347 225.25077,44.8330347 L20.4003395,44.8330347 C9.44199028,44.8330347 0.55825188,35.9512279 0.55825188,24.9938446 L0.55825188,20.7036113 C0.55825188,9.74719373 9.44199028,0.865386998 20.4003395,0.865386998 L225.25077,0.865386998 C236.210085,0.865386998 245.090926,9.7462279 245.090926,20.7036113 L245.090926,24.9938446 L245.090926,24.9938446 Z" id="Shape"></path>
                <path d="M62.0615763,44.517207 C62.0615763,44.517207 62.0615763,140.999165 26.9284095,151.487153 C-8.20282564,161.976107 44.7567338,243.256808 78.841971,166.170723 C78.841971,166.170723 105.057595,105.343482 95.0940547,45.0387572 L62.0615763,44.517207 L62.0615763,44.517207 Z" id="Shape"></path>
                <path d="M139.894251,33.2410986 C139.894251,33.2410986 100.866843,193.966451 175.031281,199.622373 C175.031281,199.622373 252.474725,211.240387 234.897517,160.308112 C234.897517,160.308112 231.027422,145.713399 199.455284,153.754931 C167.884112,161.796462 170.265858,66.7825714 182.175553,34.0195605 L139.894251,33.2410986 L139.894251,33.2410986 Z" id="Shape"></path>
            </g>
        </g>
    </g>
</svg>