<?xml version="1.0" encoding="UTF-8" standalone="no"?>
<svg width="39px" height="34px" viewBox="0 0 39 34" version="1.1" xmlns="http://www.w3.org/2000/svg" xmlns:xlink="http://www.w3.org/1999/xlink">
    <!-- Generator: Sketch 3.6.1 (26313) - http://www.bohemiancoding.com/sketch -->
    <title>Shape</title>
    <desc>Created with Sketch.</desc>
    <defs>
        <filter x="-50%" y="-50%" width="200%" height="200%" filterUnits="objectBoundingBox" id="filter-1">
            <feOffset dx="0" dy="0.5" in="SourceAlpha" result="shadowOffsetOuter1"></feOffset>
            <feGaussianBlur stdDeviation="1" in="shadowOffsetOuter1" result="shadowBlurOuter1"></feGaussianBlur>
            <feColorMatrix values="0 0 0 0 0.607892215   0 0 0 0 0.607803345   0 0 0 0 0.607922554  0 0 0 0.7 0" in="shadowBlurOuter1" type="matrix" result="shadowMatrixOuter1"></feColorMatrix>
            <feMerge>
                <feMergeNode in="shadowMatrixOuter1"></feMergeNode>
                <feMergeNode in="SourceGraphic"></feMergeNode>
            </feMerge>
        </filter>
        <filter x="-50%" y="-50%" width="200%" height="200%" filterUnits="objectBoundingBox" id="filter-2">
            <feOffset dx="0" dy="0.6" in="SourceAlpha" result="shadowOffsetInner1"></feOffset>
            <feGaussianBlur stdDeviation="0.5" in="shadowOffsetInner1" result="shadowBlurInner1"></feGaussianBlur>
            <feComposite in="shadowBlurInner1" in2="SourceAlpha" operator="arithmetic" k2="-1" k3="1" result="shadowInnerInner1"></feComposite>
            <feColorMatrix values="0 0 0 0 0   0 0 0 0 0   0 0 0 0 0  0 0 0 0.35 0" in="shadowInnerInner1" type="matrix" result="shadowMatrixInner1"></feColorMatrix>
            <feMerge>
                <feMergeNode in="SourceGraphic"></feMergeNode>
                <feMergeNode in="shadowMatrixInner1"></feMergeNode>
            </feMerge>
        </filter>
    </defs>
    <g id="Page-1" stroke="none" stroke-width="1" fill="none" fill-rule="evenodd" filter="url(#filter-1)">
        <g id="iPhone-6" transform="translate(-305.000000, -192.000000)" fill="#FFFFFF">
            <g id="gift-card-modi" transform="translate(11.000000, 171.000000)">
                <path d="M325.150801,22.6285401 L311.018615,44.4515505 L307.322088,39.5898468 C307.251582,39.4510739 307.176427,39.3200536 307.079578,39.1952355 L301.067976,31.3154146 C300.156822,30.1238282 298.449957,29.8904726 297.256779,30.8060638 C296.055078,31.7201044 295.830389,33.4272439 296.739994,34.6234819 L297.306366,35.3677389 L297.462099,35.6266783 L309.035925,50.8343295 C309.548062,51.5126887 310.357719,51.910401 311.20379,51.910401 C312.187775,51.8778398 313.005954,51.4111286 313.486324,50.6691974 L329.722842,25.5861864 C330.539472,24.3279269 330.17687,22.6417196 328.913961,21.8222617 C327.653376,21.0051295 325.965881,21.3609774 325.150801,22.6285401 Z" id="Shape" filter="url(#filter-2)" transform="translate(313.170840, 36.646998) rotate(2.000000) translate(-313.170840, -36.646998) "></path>
            </g>
        </g>
    </g>
</svg>