<?xml version="1.0" encoding="UTF-8" standalone="no"?>
<svg width="29px" height="28px" viewBox="0 0 29 28" version="1.1" xmlns="http://www.w3.org/2000/svg" xmlns:xlink="http://www.w3.org/1999/xlink">
    <!-- Generator: Sketch 3.6.1 (26313) - http://www.bohemiancoding.com/sketch -->
    <title>Group</title>
    <desc>Created with Sketch.</desc>
    <defs>
        <rect id="path-1" x="0.154" y="0.255156923" width="1.387" height="0.853024615"></rect>
        <rect id="path-3" x="0.227" y="0.264662769" width="1.378" height="0.840516923"></rect>
        <rect id="path-5" x="0.213" y="0.495304615" width="1.786" height="0.602870769"></rect>
        <rect id="path-7" x="0.021" y="0.278671385" width="0.787" height="0.739454769"></rect>
        <rect id="path-9" x="0.4175" y="0.278671385" width="0.787" height="0.739454769"></rect>
    </defs>
    <g id="Page-1" stroke="none" stroke-width="1" fill="none" fill-rule="evenodd">
        <g id="iPhone-6" transform="translate(-3.000000, -560.000000)">
            <g id="Group" transform="translate(3.500000, 560.000000)">
                <ellipse id="Oval" fill="#FE697D" cx="14" cy="14.0086154" rx="14" ry="14.0086154"></ellipse>
                <path d="M7.814,12.7930228 C6.482,13.2873268 5.019,13.9292215 4.491,15.2495335 C4.0215,16.4192529 4.487,17.8196142 5.3825,18.7031575 C6.279,19.5912037 7.528,20.0369778 8.768,20.2561126 C10.173,20.502264 11.677,20.4757477 12.9555,19.8448597 C14.287,19.1879557 13.431,18.8197292 14.722,18.0887797 C14.493,19.68276 17.816,20.1810665 19.376,20.5678043 C20.6365,20.879496 22.109,20.7028874 22.9995,19.7568055 C23.746,18.9663194 23.9455,17.8066062 23.95,16.7179366 C23.954,15.7593471 23.829,14.7812455 23.394,13.9292215 C22.813,12.7935231 21.7175,11.9800228 20.5255,11.5342486 C19.332,11.0859729 18.04,10.9714025 16.765,10.9613963 C15.029,10.9513902 13.2935,11.1294997 11.594,11.4947243" id="Shape" fill="#6D383C"></path>
                <path d="M11.5615,16.8700302 C11.5615,16.8700302 9.8,17.6935366 9.549,17.8461305 C9.549,17.8461305 9.008,18.1958455 9.42,18.6471231 C9.42,18.6471231 9.7485,19.051872 10.7565,18.4960302 C10.7565,18.4960302 11.9475,17.6450068 12.196,17.3498252 C12.4445,17.0556443 12.4745,17.1512031 12.4745,17.1512031 C12.4745,17.1512031 11.994,16.6528966 11.5615,16.8700302" id="Shape" fill="#FADBBF"></path>
                <path d="M17.177,16.1565914 C17.283,16.2436449 17.4415,16.2036203 17.566,16.1420825 C17.9595,15.9504646 18.275,15.6037514 18.4265,15.1934991 C18.4785,15.0579157 18.514,14.9083237 18.6095,14.7997569 C18.705,14.6911902 18.89,14.6386578 18.995,14.7362178 C19.058,14.7947538 19.076,14.8858098 19.082,14.9708622 C19.1135,15.4846782 18.8095,15.9499643 18.5165,16.3727243 C18.413,16.5233169 18.278,16.6604012 18.1325,16.7724702 C17.9095,16.944576 17.6,17.061648 17.3195,17.1116788 C17.0385,17.1617095 16.5575,17.1607089 16.344,16.9720929 C16.5635,16.8129951 16.941,16.5743483 17.036,16.320192" id="Shape" fill="#FADBBF"></path>
                <path d="M9.0065,13.9782517 C9.0065,13.9782517 5.359,17.6124868 7.4075,19.9129015 C7.4075,19.9129015 6.397,19.7092763 5.8925,19.1464302 L5.829,18.9257945 C5.829,18.9257945 4.746,15.6217625 8.3935,13.4889508 C8.393,13.4879502 8.894,13.7546142 9.0065,13.9782517" id="Shape" fill="#87484A"></path>
                <path d="M19.9535,13.4964554 C20.69,14.1063305 21.2905,15.1794905 21.487,16.1155662 C21.683,17.0476394 21.602,18.0297434 21.3275,18.9453065 C21.1405,19.5726923 20.7935,20.2361003 20.167,20.4277182 C20.101,20.4667422 20.2105,20.5497932 20.288,20.5422886 C21.3995,20.4482308 22.401,19.6907649 22.9145,18.6991551 C23.425,17.7075452 23.478,16.5143114 23.185,15.4371489 C22.8925,14.3594862 22.1965,13.2032751 21.445,12.3777674 C20.9245,12.7795145 20.613,13.0011508 19.9535,13.4964554" id="Shape" fill="#87484A"></path>
                <path d="M15.331,25.1271083 L15.331,25.1271083 C14.999,25.1271083 14.727,24.8544406 14.727,24.5232369 L14.6025,21.4038185 C14.6025,21.0716142 14.999,21.1451594 15.331,21.1451594 C15.6625,21.1451594 16.1125,21.0150794 16.1125,21.3462831 L15.9355,24.5232369 C15.9345,24.8544406 15.6625,25.1271083 15.331,25.1271083" id="Shape" fill="#FADBBF"></path>
                <g opacity="0.65" transform="translate(14.500000, 22.512000)" id="Clipped">
                    <g>
                        <g>
                            <mask id="mask-2" fill="white">
                                <use xlink:href="#path-1"></use>
                            </mask>
                            <g id="SVGID_31_"></g>
                            <path d="M1.5415,0.255156923 C1.5415,0.255156923 0.473,0.469288615 0.1545,0.267664615 L0.1785,0.939077538 C0.1785,0.939077538 0.944,1.32231323 1.502,0.935075077 L1.5415,0.255156923 L1.5415,0.255156923 Z" id="Shape" fill="#FFFFFF" mask="url(#mask-2)"></path>
                        </g>
                    </g>
                </g>
                <path d="M15.324,25.120104 L15.324,25.120104 C14.992,25.120104 14.72,24.8494375 14.7125,24.4391852 L14.673,23.4490763 C14.673,23.4490763 15.224,23.6972289 15.9965,23.4245612 L15.9265,24.5172332 C15.9275,24.8494375 15.6565,25.120104 15.324,25.120104" id="Shape" fill="#C10C5F"></path>
                <path d="M13.4025,25.1261077 L13.4025,25.1261077 C13.071,25.1261077 12.798,24.85344 12.798,24.5222363 L12.6755,21.4008166 C12.6755,21.0686123 13.071,21.1431582 13.4025,21.1431582 C13.735,21.1431582 14.1845,21.0120775 14.1845,21.3462831 L14.005,24.5222363 C14.005,24.85344 13.735,25.1261077 13.4025,25.1261077" id="Shape" fill="#FADBBF"></path>
                <g opacity="0.65" transform="translate(12.500000, 22.512000)" id="Clipped">
                    <g>
                        <g>
                            <mask id="mask-4" fill="white">
                                <use xlink:href="#path-3"></use>
                            </mask>
                            <g id="SVGID_33_"></g>
                            <path d="M1.6045,0.264662769 C1.6045,0.264662769 0.5435,0.466787077 0.2265,0.265663385 L0.2495,0.938076923 C0.2495,0.938076923 1.0145,1.31931138 1.5725,0.932073231 L1.6045,0.264662769 L1.6045,0.264662769 Z" id="Shape" fill="#FFFFFF" mask="url(#mask-4)"></path>
                        </g>
                    </g>
                </g>
                <path d="M13.3965,25.1406166 L13.3965,25.1406166 C13.065,25.1406166 12.793,24.8699502 12.7855,24.4596978 L12.7465,23.4695889 C12.7465,23.4695889 13.297,23.7177415 14.0695,23.4450738 L13.9995,24.5377458 C14.0005,24.8699502 13.73,25.1406166 13.3965,25.1406166" id="Shape" fill="#C10C5F"></path>
                <path d="M16.2455,17.0816603 C16.931,16.8950455 17.716,15.6953077 17.716,15.6953077 L15.5475,15.0874338 C15.5445,15.0464086 15.621,14.8743028 15.621,14.8743028 L13.3655,14.9263348 C13.3655,14.9263348 13.364,15.0679218 13.333,15.1674831 L13.2985,15.1744874 L11.1265,15.9769809 C11.1265,15.9769809 11.5915,16.9260646 12.23,17.0966695 C12.2475,18.3954683 11.2035,20.1260326 10.534,20.4652412 C10.534,20.4652412 13.836,23.0683422 18.274,20.5688049 C18.2755,20.5733077 17.026,18.7957145 16.2455,17.0816603" id="Shape" fill="#E54256"></path>
                <path d="M13.021,15.3365871 L12.7275,19.0488702 L13.471,19.0623785 L13.471,15.0689225 C13.4715,15.0689225 13.0835,15.2740486 13.021,15.3365871" id="Shape" fill="#A50E59"></path>
                <path d="M15.948,15.1990025 L16.1935,19.0468689 L15.4515,19.0623785 L15.4745,15.0494105 C15.474,15.0494105 15.8855,15.1374646 15.948,15.1990025" id="Shape" fill="#A50E59"></path>
                <path d="M15.764,10.7977957 C15.764,11.5767748 16.4185,12.2066622 17.2265,12.2066622 C18.0355,12.2066622 18.689,11.5752738 18.689,10.7977957 C18.689,10.0203175 18.0355,9.38892923 17.2265,9.38892923 C16.418,9.38792862 15.764,10.0198172 15.764,10.7977957" id="Shape" fill="#87484A"></path>
                <path d="M11.72,19.0233545 C11.838,19.0578757 17.0625,19.0338609 17.0625,19.0338609 L18.2585,20.6383477 C18.2585,20.6383477 14.152,23.2129311 10.5335,20.4937588 L11.72,19.0233545 L11.72,19.0233545 Z" id="Shape" fill="#C10C5F"></path>
                <path d="M23.581,11.149512 C23.4835,10.2219415 23.0365,9.84671077 22.3525,9.84671077 C22.173,9.84671077 22.001,9.874728 21.8445,9.92876123 C21.5435,8.43934523 20.017,3.25565723 13.38,3.68141908 C13.279,3.689424 7.182,4.749576 7.086,10.1994277 C6.9135,10.1298849 6.7205,10.0938628 6.5165,10.0938628 C5.8325,10.0938628 5.385,10.4720954 5.2875,11.396664 C5.174,12.469824 6.589,13.1597483 7.3825,12.9876425 C7.536,12.9536215 7.638,12.9005889 7.704,12.8295452 C7.89,13.1227255 9.2385,15.0399046 13.0895,15.1814917 C13.328,15.1919982 13.577,15.1919982 13.835,15.1874954 C13.835,15.1874954 19.4035,15.4336468 21.178,12.5979028 C21.247,12.6604412 21.344,12.7084708 21.4845,12.7394898 C22.28,12.9140972 23.693,12.2236726 23.581,11.149512" id="Shape" fill="#FADBBF"></path>
                <path d="M14.9745,12.0290529 C14.9565,11.9605108 14.896,11.9119809 14.8545,11.8539452 C14.806,11.7854031 14.783,11.6973489 14.792,11.6142978 L14.7915,11.533248 C14.78,11.5312468 14.3235,11.5497582 14.2085,11.5612652 L14.208,11.5972874 C14.218,11.6813391 14.195,11.7703938 14.146,11.8369348 C14.1045,11.8954708 14.045,11.9435003 14.026,12.0110418 C14.014,12.0605723 14.026,12.1126043 14.0585,12.1486265 C14.091,12.1846486 14.146,12.2006585 14.193,12.1906523 C14.22,12.1801458 14.245,12.1681385 14.273,12.1691391 C14.288,12.1711403 14.3025,12.1796455 14.3175,12.1866498 C14.42,12.2386818 14.5405,12.2446855 14.6535,12.216168 C14.6525,12.2151674 14.6535,12.216168 14.6535,12.216168 C14.6635,12.2121655 14.6735,12.2091637 14.683,12.2056615 C14.6985,12.1971563 14.714,12.190152 14.7295,12.1891514 C14.7575,12.1861495 14.7815,12.2021594 14.8075,12.2086634 C14.8555,12.2196702 14.9105,12.20316 14.942,12.1686388 C14.975,12.1306154 14.9855,12.0760818 14.9745,12.0290529" id="Shape" fill="#F5C9AB"></path>
                <path d="M13.506,4.378848 C13.506,4.378848 13.1755,7.72540615 11.1325,8.03459631 C11.1325,8.03459631 12.7435,6.69277108 12.702,4.64751323 C12.702,4.64751323 8.8375,10.8408222 7.2265,10.1899218 L7.118,10.1273834 C7.118,10.1273834 6.736,5.14281785 13.1755,3.63388985 C13.1755,3.63388985 19.2875,1.85129354 21.9865,8.99818892 L22.028,9.90324554 C22.028,9.90174462 15.1235,8.554416 13.506,4.378848" id="Shape" fill="#87484A"></path>
                <path d="M11.4635,4.27628492 C11.4635,4.27628492 11.4535,4.28679138 11.4375,4.31030585 C11.126,4.73756862 7.9905,9.02520554 7.1485,9.39843508 C7.1485,9.39843508 7.4585,5.70166154 11.484,4.17272123" id="Shape" fill="#6D383C"></path>
                <path d="M14.3015,3.44477354 C14.3015,3.44477354 17.2015,8.38631262 21.8455,8.98418031 L21.9905,9.00569354 L21.3515,7.53879138 C21.3515,7.53879138 16.9955,5.78271138 16.17,3.55284 C16.169,3.55284 15.0855,3.33020308 14.3015,3.44477354" id="Shape" fill="#6D383C"></path>
                <g opacity="0.15" transform="translate(16.500000, 12.005538)" id="Shape" fill="#E54256">
                    <g>
                        <path d="M3.6015,0.966594462 C3.6015,1.45639569 2.8295,1.85364 1.8785,1.85364 C0.927,1.85364 0.155,1.45489477 0.155,0.966594462 C0.155,0.476793231 0.927,0.0805495385 1.8785,0.0805495385 C2.8295,0.0790486154 3.6015,0.476793231 3.6015,0.966594462"></path>
                    </g>
                </g>
                <g opacity="0.15" transform="translate(9.500000, 12.005538)" id="Shape" fill="#E54256">
                    <g>
                        <path d="M3.7695,1.13269662 C3.7695,1.62249785 2.997,2.01974215 2.0465,2.01974215 C1.094,2.01974215 0.3215,1.62199754 0.3215,1.13269662 C0.3215,0.643395692 1.094,0.245150769 2.0465,0.245150769 C2.997,0.242148923 3.7695,0.640894154 3.7695,1.13269662"></path>
                    </g>
                </g>
                <path d="M7.4005,10.9443858 C7.29,10.6932314 6.9555,10.5701557 6.684,10.6081791 C6.411,10.6452018 6.1775,10.8798462 6.1405,11.1525138 C6.1045,11.4241809 6.251,11.6988498 6.4585,11.8754585 C6.6685,12.0525674 6.933,12.1551305 7.1965,12.2351797 C6.9735,12.1376197 6.782,11.9685157 6.6555,11.7613883 C6.5715,11.6208018 6.518,11.4376892 6.6065,11.2981034 C6.6795,11.1845335 6.8415,11.1425077 6.958,11.2040455 C7.075,11.266584 7.132,11.4231803 7.0825,11.5472566 C7.072,11.5717717 7.058,11.5952862 7.051,11.6223028 C7.035,11.6968486 7.1005,11.7788991 7.1775,11.7974105 C7.255,11.8159218 7.336,11.7859034 7.4005,11.7368732 C7.5295,11.6403138 7.5545,11.5217409 7.536,11.3636437 C7.5165,11.2060468 7.4885,11.1014825 7.396,10.9353803" id="Shape" fill="#F5C9AB"></path>
                <g opacity="0.65" transform="translate(8.500000, 8.503385)" id="Shape" fill="#FFFFFF">
                    <g>
                        <path d="M5.3165,2.42349046 C5.3165,2.42349046 5.1715,0.375230769 2.674,0.349214769 C2.674,0.349214769 0.5885,0.393241846 0.382,1.81911877 C0.382,1.81911877 -0.05,3.97644554 3.046,3.97644554 C3.046,3.97294338 5.398,4.04348677 5.3165,2.42349046"></path>
                    </g>
                </g>
                <path d="M13.48,10.7352572 C13.48,11.5142363 12.8245,12.1451243 12.0165,12.1451243 C11.2095,12.1451243 10.555,11.513736 10.555,10.7352572 C10.555,9.95727877 11.2095,9.32639077 12.0165,9.32639077 C12.825,9.32539015 13.48,9.95727877 13.48,10.7352572" id="Shape" fill="#87484A"></path>
                <path d="M8.8985,10.2554622 C8.8985,10.2554622 10.5625,8.34979015 12.947,9.38092431 C12.947,9.38092431 11.573,8.20620185 9.572,9.29487138 C9.572,9.29487138 8.915,9.72113354 8.8985,10.2554622" id="Shape" fill="#6D383C"></path>
                <path d="M8.915,10.2239428 C8.915,10.2239428 8.627,10.1148757 8.5505,9.68961415 C8.5505,9.68961415 8.9375,9.84420923 9.146,9.79117662 L8.915,10.2239428 L8.915,10.2239428 Z" id="Shape" fill="#6D383C"></path>
                <g opacity="0.65" transform="translate(15.000000, 8.503385)" id="Shape" fill="#FFFFFF">
                    <g>
                        <path d="M0.4405,2.42349046 C0.4405,2.42349046 0.5855,0.375230769 3.0835,0.349214769 C3.0835,0.349214769 5.167,0.393241846 5.3745,1.81911877 C5.3745,1.81911877 5.8065,3.97644554 2.712,3.97644554 C2.712,3.97294338 0.358,4.04348677 0.4405,2.42349046"></path>
                    </g>
                </g>
                <path d="M15.776,10.7907914 C15.776,11.5707711 16.432,12.2001582 17.2395,12.2001582 C18.047,12.2001582 18.7035,11.5687698 18.7035,10.7907914 C18.7035,10.0118123 18.047,9.38092431 17.2395,9.38092431 C16.4315,9.38092431 15.776,10.0133132 15.776,10.7907914" id="Shape" fill="#87484A"></path>
                <path d="M20.3595,10.2554622 C20.3595,10.2554622 18.6945,8.34979015 16.3105,9.38092431 C16.3105,9.38092431 17.6845,8.20620185 19.6855,9.29487138 C19.686,9.29487138 20.343,9.72113354 20.3595,10.2554622" id="Shape" fill="#6D383C"></path>
                <path d="M20.343,10.2239428 C20.343,10.2239428 20.6295,10.1148757 20.7075,9.68961415 C20.7075,9.68961415 20.3215,9.84420923 20.1115,9.79117662 L20.343,10.2239428 L20.343,10.2239428 Z" id="Shape" fill="#6D383C"></path>
                <path d="M12.0565,7.80845723 C12.0565,7.80845723 10.415,7.403208 9.796,8.36379877 C9.7965,8.3658 10.4315,5.94931385 12.0565,7.80845723" id="Shape" fill="#6D383C"></path>
                <path d="M16.416,7.67487508 C16.416,7.67487508 18.0355,5.77120431 18.695,8.15166831 C18.6945,8.15166831 17.3895,7.07650708 16.416,7.67487508" id="Shape" fill="#6D383C"></path>
                <g opacity="0.65" transform="translate(13.500000, 12.505846)" id="Clipped">
                    <g>
                        <g>
                            <mask id="mask-6" fill="white">
                                <use xlink:href="#path-5"></use>
                            </mask>
                            <g id="SVGID_35_"></g>
                            <path d="M1.9995,0.497305846 C1.132,1.84963754 0.243,0.497305846 0.2135,0.497305846 L1.9995,0.497305846 L1.9995,0.497305846 Z" id="Shape" fill="#FFFFFF" mask="url(#mask-6)"></path>
                        </g>
                    </g>
                </g>
                <path d="M13.9635,13.2800075 C13.9635,13.2800075 14.6095,14.3916143 15.309,13.269816 C15.309,13.269816 14.9225,13.6498152 14.5585,13.5901218 C14.559,13.5930337 14.0795,13.4860224 13.9635,13.2800075" id="Shape" fill="#E54256"></path>
                <path d="M21.7245,10.8338178 C21.835,10.5806622 22.17,10.4585871 22.442,10.4966105 C22.713,10.5346338 22.9465,10.7672769 22.985,11.0419458 C23.022,11.3126123 22.876,11.5862806 22.666,11.7633895 C22.4565,11.9419994 22.194,12.0425612 21.9305,12.1236111 C22.1515,12.0260511 22.3435,11.8579477 22.469,11.6508203 C22.5535,11.5092332 22.6075,11.3246197 22.5185,11.1855342 C22.4455,11.071464 22.2865,11.0294382 22.1665,11.0919766 C22.0495,11.1545151 21.9935,11.3111114 22.045,11.435688 C22.055,11.4602031 22.069,11.4847182 22.0755,11.5092332 C22.091,11.58528 22.0265,11.6658295 21.949,11.6858418 C21.8705,11.7053538 21.7885,11.6743348 21.725,11.6263052 C21.597,11.5297458 21.572,11.409672 21.5895,11.2510745 C21.61,11.0929772 21.636,10.9884129 21.7295,10.8223108" id="Shape" fill="#F5C9AB"></path>
                <path id="Shape" fill="#E54256" d="M13.7185,13.1540064 C13.942,12.9550064 14.126,13.1560064 14.35,12.9550064 C14.3875,12.9220064 14.448,12.8650064 14.488,12.8510064 C14.5295,12.8390064 14.5745,12.8300064 14.5885,12.9130064 C14.6615,12.7570064 14.7655,12.8920064 14.869,12.9440064 C15.0865,13.0480064 15.325,12.9660064 15.5245,13.1730064 C14.9205,13.2820064 14.3195,13.2430064 13.714,13.1810064"></path>
                <path d="M11.2395,20.9455366 L12.333,19.2374862 L12.066,21.3432812 C12.065,21.3432812 11.493,21.1596683 11.2395,20.9455366" id="Shape" fill="#A50E59"></path>
                <path d="M13.6975,19.2805126 L14.236,21.7275175" id="Shape"></path>
                <path d="M12.862,21.5839292 C12.8365,21.5734228 13.549,19.3910806 13.549,19.3910806 L14.024,21.7365231 C14.024,21.7360228 13.369,21.7685428 12.862,21.5839292" id="Shape" fill="#A50E59"></path>
                <path d="M15.7915,21.5719218 L15.082,19.5186591 L14.8745,21.7085058 C14.875,21.7095065 15.4885,21.6619772 15.7915,21.5719218" id="Shape" fill="#A50E59"></path>
                <path d="M16.597,21.3402794 L16.4015,19.3050277 L17.764,20.8980074 C17.764,20.8975071 16.9015,21.3968142 16.597,21.3402794" id="Shape" fill="#A50E59"></path>
                <path d="M13.1660026,21.7645403 C13.1660026,21.7645403 13.1547315,22.3530105 13.5186266,22.2546964 C13.5186266,22.2546964 13.6286539,22.2285265 13.6672976,22.0835308 C13.6672976,22.0835308 13.2749565,22.4371788 13.2202112,21.7751497 L13.1660026,21.7645403 L13.1660026,21.7645403 Z" id="Shape" fill="#D6916B"></path>
                <path d="M15.6878086,21.8816123 C15.6878086,21.8816123 15.6974388,22.4707355 15.3368391,22.3716042 C15.3368391,22.3716042 15.2266261,22.3475294 15.1865,22.2023729 C15.1865,22.2023729 15.5775956,22.5578294 15.6332371,21.8922335 L15.6878086,21.8816123 L15.6878086,21.8816123 Z" id="Shape" fill="#D6916B"></path>
                <g opacity="0.84" transform="translate(13.000000, 23.512615)" id="Clipped">
                    <g>
                        <g>
                            <mask id="mask-8" fill="white">
                                <use xlink:href="#path-7"></use>
                            </mask>
                            <g id="SVGID_37_"></g>
                            <path d="M0.58,0.278671385 L0.2525,0.278671385 C0.125,0.278671385 0.0215,0.382235077 0.0215,0.508312615 L0.0215,0.697929231 C0.0215,0.824006769 0.1405,0.934074462 0.2625,0.990108923 C0.38,1.04164062 0.521,1.00561846 0.5705,0.985105846 L0.5765,0.985105846 C0.7065,0.926569846 0.8085,0.824006769 0.8085,0.697929231 L0.8085,0.508312615 C0.8085,0.382235077 0.7065,0.278671385 0.58,0.278671385" id="Shape" fill="#FFFFFF" mask="url(#mask-8)"></path>
                        </g>
                    </g>
                </g>
                <g opacity="0.84" transform="translate(14.500000, 23.512615)" id="Clipped">
                    <g>
                        <g>
                            <mask id="mask-10" fill="white">
                                <use xlink:href="#path-9"></use>
                            </mask>
                            <g id="SVGID_39_"></g>
                            <path d="M0.9755,0.278671385 L0.648,0.278671385 C0.5215,0.278671385 0.418,0.382235077 0.418,0.508312615 L0.418,0.697929231 C0.418,0.824006769 0.535,0.934074462 0.658,0.990108923 C0.776,1.04164062 0.917,1.00561846 0.968,0.985105846 L0.9715,0.985105846 C1.103,0.926569846 1.205,0.824006769 1.205,0.697929231 L1.205,0.508312615 C1.205,0.382235077 1.103,0.278671385 0.9755,0.278671385" id="Shape" fill="#FFFFFF" mask="url(#mask-10)"></path>
                        </g>
                    </g>
                </g>
                <path d="M13.3435,15.1599785 C12.7905,15.1374646 12.556,15.4256418 12.458,15.6777969 C12.3445,15.442152 12.1065,15.1980018 11.5945,15.2185145 C11.5945,15.2185145 10.944,15.2760498 10.9565,15.7323305 C10.9565,15.7323305 11.016,16.1165668 11.4855,16.1976166 C11.4855,16.1976166 12.3015,16.3156892 12.535,16.2266345 C12.535,16.2266345 12.5385,16.2131262 12.5425,16.1946148 C12.8615,16.2261342 13.454,16.1425828 13.454,16.1425828 C13.9255,16.0585311 13.984,15.6732942 13.984,15.6732942 C13.9945,15.2155126 13.3435,15.1599785 13.3435,15.1599785 M12.286,16.0755415 C12.044,16.1070609 11.6405,15.8724166 11.6405,15.8724166 C11.464,15.741336 11.651,15.5967471 11.651,15.5967471 C11.8605,15.5086929 12.0605,15.6747951 12.0605,15.6747951 C12.153,15.7433372 12.2995,16.0725397 12.286,16.0755415 M13.2975,15.8123797 C13.2975,15.8123797 12.8965,16.0460234 12.6545,16.0140037 C12.6395,16.0100012 12.789,15.6833003 12.8785,15.6132572 C12.8785,15.6132572 13.0785,15.4461545 13.2865,15.5352092 C13.287,15.5372105 13.4745,15.6817994 13.2975,15.8123797" id="Shape" fill="#E0B8C5"></path>
            </g>
        </g>
    </g>
</svg>