<?xml version="1.0" encoding="UTF-8" standalone="no"?>
<svg width="375px" height="675px" viewBox="0 0 375 675" version="1.1" xmlns="http://www.w3.org/2000/svg" xmlns:xlink="http://www.w3.org/1999/xlink">
    <!-- Generator: Sketch 3.6.1 (26313) - http://www.bohemiancoding.com/sketch -->
    <title>蓝天和云</title>
    <desc>Created with Sketch.</desc>
    <defs></defs>
    <g id="Page-1" stroke="none" stroke-width="1" fill="none" fill-rule="evenodd">
        <g id="iPhone-6-Copy-2" transform="translate(0.000000, -104.000000)">
            <g id="蓝天和云" transform="translate(-31.000000, 104.000000)">
                <g id="云及蓝天">
                    <rect id="Rectangle-path" fill="#C2F2FE" x="31" y="0" width="375.413417" height="674.914381"></rect>
                    <path d="M406.41459,131.675573 C400.445516,131.9078 395.346933,136.165877 393.022889,142.224298 C392.35653,141.39743 391.617435,140.650903 390.817335,139.997619 C390.92292,139.312081 390.982752,138.604845 390.982752,137.882948 C390.982752,131.389395 386.508293,126.126175 380.989716,126.126175 C379.963195,126.126175 378.970109,126.307382 378.038028,126.646926 C374.582465,121.383119 369.170646,117.991201 363.081323,117.991201 C354.329498,117.991201 346.970808,124.994949 344.825086,134.498067 C343.912949,134.299853 342.975002,134.189018 342.012418,134.189018 C334.005554,134.189018 327.434646,141.406227 326.730746,150.616129 L406.41459,150.616129 L406.41459,131.675573 L406.41459,131.675573 Z" id="Shape" fill="#FFFFFF"></path>
                    <path d="M406.413417,375.088515 C401.936025,375.263858 398.112087,378.455803 396.368761,383.000645 C395.868992,382.379614 395.314671,381.819572 394.714596,381.330489 C394.794958,380.816189 394.838952,380.286055 394.838952,379.744192 C394.838952,374.873881 391.483108,370.926026 387.344175,370.926026 C386.573991,370.926026 385.829616,371.062078 385.130409,371.316589 C382.53947,367.368734 378.479139,364.825382 373.912587,364.825382 C367.349304,364.825382 361.828967,370.07746 360.219382,377.204945 C359.535426,377.055992 358.832112,376.973305 358.110028,376.973305 C352.104,376.973305 347.174939,382.386065 346.647601,389.294225 L406.413417,389.294225 L406.413417,375.088515 L406.413417,375.088515 Z" id="Shape" fill="#FFFFFF"></path>
                    <path d="M409.413417,559.088515 C404.936025,559.263858 401.112087,562.455803 399.368761,567.000645 C398.868992,566.379614 398.314671,565.819572 397.714596,565.330489 C397.794958,564.816189 397.838952,564.286055 397.838952,563.744192 C397.838952,558.873881 394.483108,554.926026 390.344175,554.926026 C389.573991,554.926026 388.829616,555.062078 388.130409,555.316589 C385.53947,551.368734 381.479139,548.825382 376.912587,548.825382 C370.349304,548.825382 364.828967,554.07746 363.219382,561.204945 C362.535426,561.055992 361.832112,560.973305 361.110028,560.973305 C355.104,560.973305 350.174939,566.386065 349.647601,573.294225 L409.413417,573.294225 L409.413417,559.088515 L409.413417,559.088515 Z" id="Shape" fill="#FFFFFF"></path>
                    <path d="M113.905947,310.149754 C107.088674,310.149754 101.224599,314.929168 98.5920125,321.792759 C97.8587832,320.882032 97.0428456,320.059269 96.1617972,319.34089 C96.2779407,318.58498 96.3442246,317.8062 96.3442246,317.009826 C96.3442246,309.857711 91.416337,304.059079 85.336986,304.059079 C84.206053,304.059079 83.1126615,304.260811 82.0855538,304.634368 C78.2786271,298.835736 72.317766,295.098996 65.6107707,295.098996 C55.9696849,295.098996 47.8654477,302.812913 45.5015164,313.281883 C44.4966989,313.062558 43.4625523,312.94058 42.4020094,312.94058 C38.0038066,312.94058 34.0056537,314.929168 31,318.17096 L31,331.035502 L130.676955,331.035502 C130.693379,330.664291 130.704524,330.288975 130.704524,329.91014 C130.704524,318.999001 123.182764,310.149754 113.905947,310.149754 L113.905947,310.149754 Z" id="Shape" fill="#FFFFFF"></path>
                    <path d="M82.905947,591.149754 C76.0886739,591.149754 70.2245991,595.929168 67.5920125,602.792759 C66.8587832,601.882032 66.0428456,601.059269 65.1617972,600.34089 C65.2779407,599.58498 65.3442246,598.8062 65.3442246,598.009826 C65.3442246,590.857711 60.416337,585.059079 54.336986,585.059079 C53.206053,585.059079 52.1126615,585.260811 51.0855538,585.634368 C47.2786271,579.835736 41.317766,576.098996 34.6107707,576.098996 C24.9696849,576.098996 16.8654477,583.812913 14.5015164,594.281883 C13.4966989,594.062558 12.4625523,593.94058 11.4020094,593.94058 C7.00380655,593.94058 3.00565367,595.929168 0,599.17096 L0,612.035502 L99.6769548,612.035502 C99.6933791,611.664291 99.7045242,611.288975 99.7045242,610.91014 C99.7045242,599.999001 92.1827644,591.149754 82.905947,591.149754 L82.905947,591.149754 Z" id="Shape" fill="#FFFFFF"></path>
                </g>
            </g>
        </g>
    </g>
</svg>